<svg width="112" height="29" viewBox="0 0 112 29" fill="none" xmlns="http://www.w3.org/2000/svg">
<path d="M63.9889 15.7568C63.9889 17.0704 63.9889 18.3841 63.9889 19.6977C63.9889 19.9604 63.933 20.0167 63.6725 20.0167C63.1328 20.0167 62.5992 20.0167 62.0595 20.0167C61.8052 20.0167 61.7493 19.9542 61.7493 19.7039C61.7493 17.183 61.7493 14.6559 61.7493 12.135C61.7493 11.3843 61.2654 10.765 60.5582 10.6024C59.578 10.3772 58.6475 11.1153 58.6475 12.1287C58.6475 14.6434 58.6475 17.1643 58.6475 19.6789C58.6475 19.9667 58.5978 20.0167 58.3187 20.0167C57.7789 20.0167 57.2454 20.0167 56.7057 20.0167C56.4761 20.0167 56.4141 19.9542 56.4141 19.7227C56.4141 17.1893 56.4141 14.6559 56.4141 12.1225C56.4141 11.3968 55.9178 10.7713 55.2168 10.6087C54.2428 10.3772 53.3122 11.1153 53.3122 12.1225C53.3122 14.6371 53.3122 17.158 53.3122 19.6727C53.3122 19.9729 53.2626 20.023 52.9586 20.023C52.4313 20.023 51.904 20.023 51.3767 20.023C51.1285 20.023 51.0727 19.9667 51.0727 19.7227C51.0727 17.183 51.0789 14.6434 51.0665 12.1099C51.0541 10.1958 52.5244 8.65073 54.1559 8.37549C55.3843 8.16281 56.4823 8.46932 57.4129 9.3138C57.4998 9.39512 57.5432 9.40763 57.6424 9.32005C59.5036 7.61234 62.5372 8.08775 63.6787 10.5836C63.902 11.0716 63.9951 11.5907 63.9951 12.1287C63.9889 13.3422 63.9951 14.5495 63.9889 15.7568Z" fill="#2D2D2D"/>
<path d="M37.9516 20.0167C36.8784 20.0167 35.7989 20.0167 34.7257 20.0167C34.4465 20.0167 34.3907 19.9604 34.3907 19.6789C34.3907 19.141 34.3907 18.603 34.3907 18.0713C34.3907 17.8148 34.4465 17.7585 34.7009 17.7585C36.7233 17.7585 38.7457 17.7523 40.7619 17.7585C41.2024 17.7585 41.5746 17.6272 41.8476 17.2706C42.1391 16.8828 42.1888 16.4574 41.9903 16.0196C41.7855 15.5817 41.4381 15.3064 40.948 15.3064C39.7817 15.2939 38.6092 15.3002 37.4429 15.3002C36.2394 15.3002 35.2902 14.7998 34.5706 13.8364C33.5966 12.5291 33.609 10.2897 35.3461 8.97603C35.9726 8.50687 36.6737 8.3067 37.4491 8.3067C39.4281 8.3067 41.4071 8.3067 43.3861 8.3067C43.628 8.3067 43.6901 8.36926 43.6901 8.60696C43.6901 9.15118 43.6901 9.70165 43.6901 10.2459C43.6901 10.5086 43.6342 10.5649 43.3675 10.5649C41.4009 10.5649 39.4405 10.5711 37.4739 10.5649C37.0397 10.5649 36.6861 10.7025 36.4193 11.0465C36.1277 11.4281 36.0719 11.8597 36.2642 12.2976C36.4503 12.7167 36.7791 12.9795 37.2506 13.0232C37.3623 13.0358 37.4801 13.0358 37.5918 13.0358C38.7457 13.0358 39.8996 13.0232 41.0473 13.0483C42.6106 13.0795 44.0003 14.2993 44.2732 15.8507C44.571 17.5334 43.7459 19.0909 42.1888 19.7665C41.7483 19.9604 41.2768 20.0167 40.7929 20.0167C39.8562 20.023 38.9008 20.0167 37.9516 20.0167Z" fill="#2D2D2D"/>
<path d="M90.9004 14.1617C90.9004 12.3164 90.9004 10.4711 90.9004 8.62572C90.9004 8.363 90.9562 8.3067 91.2168 8.3067C91.7565 8.3067 92.29 8.3067 92.8298 8.3067C93.0841 8.3067 93.1399 8.363 93.1399 8.61947C93.1399 11.6033 93.1399 14.5933 93.1337 17.5771C93.1337 17.7273 93.171 17.7648 93.3198 17.7648C95.0321 17.7585 96.7381 17.7585 98.4503 17.7585C98.7605 17.7585 98.7978 17.7961 98.7978 18.1088C98.7978 18.6468 98.7978 19.1848 98.7978 19.7165C98.7978 19.9479 98.7357 20.0105 98.5 20.0105C96.0681 20.0105 93.63 20.0105 91.1982 20.0105C90.9624 20.0105 90.9004 19.9479 90.9004 19.704C90.9004 17.8586 90.9004 16.0133 90.9004 14.1617Z" fill="#2D2D2D"/>
<path d="M46.5801 16.4011C46.5801 15.2939 46.5801 14.1929 46.5801 13.0857C46.5801 12.848 46.6421 12.7855 46.8717 12.7855C47.4238 12.7855 47.9759 12.7855 48.5281 12.7855C48.7638 12.7855 48.8196 12.8418 48.8196 13.0795C48.8196 15.2939 48.8196 17.5083 48.8196 19.7227C48.8196 19.9541 48.7576 20.0167 48.5281 20.0167C47.9821 20.0167 47.43 20.0167 46.8841 20.0167C46.6421 20.0167 46.5801 19.9541 46.5801 19.7101C46.5801 18.6092 46.5801 17.502 46.5801 16.4011Z" fill="#2D2D2D"/>
<path d="M106.18 8.28165C103.004 8.30042 100.392 10.8964 100.355 14.0929C100.318 17.2706 102.905 20.0292 106.174 20.0167C109.35 20.0292 111.968 17.3957 111.999 14.2055C112.03 10.9402 109.288 8.26289 106.18 8.28165ZM106.18 17.7523C104.201 17.7898 102.588 16.1071 102.594 14.1805C102.601 12.1475 104.164 10.5461 106.162 10.5461C108.147 10.5461 109.754 12.1537 109.754 14.1554C109.754 16.1509 108.165 17.7523 106.18 17.7523Z" fill="#2D2D2D"/>
<path d="M48.8196 10.3022C48.8196 10.5962 48.8196 10.8839 48.8196 11.1779C48.8196 11.3718 48.7576 11.4281 48.5715 11.4344C47.9945 11.4344 47.4176 11.4344 46.8344 11.4344C46.6545 11.4344 46.5863 11.3656 46.5801 11.1779C46.5801 10.9027 46.5801 10.6274 46.5801 10.3522C46.5801 10.2396 46.6297 10.1646 46.7228 10.1145C47.3121 9.81425 47.9015 9.514 48.4908 9.21999C48.6831 9.12616 48.8196 9.21374 48.8196 9.43268C48.8196 9.72042 48.8196 10.0082 48.8196 10.3022Z" fill="#CB3631"/>
<path d="M74.1683 14.0678C74.1063 13.999 74.0567 13.9615 74.1311 13.8551C74.7453 13.0419 74.9314 12.1224 74.7639 11.1278C74.5095 9.58899 73.0827 8.31915 71.5379 8.30039C69.8691 8.27536 68.2003 8.29413 66.5315 8.28788C66.271 8.28788 66.2275 8.33166 66.2275 8.60064C66.2275 10.4522 66.2275 12.3038 66.2275 14.1491C66.2275 16.007 66.2275 17.8586 66.2275 19.7164C66.2275 19.9604 66.2834 20.0167 66.5315 20.0167C68.2438 20.0167 69.956 20.0167 71.662 20.0167C72.1831 20.0167 72.6918 19.9416 73.1633 19.7039C74.2738 19.1409 74.9872 18.2589 75.1547 17.0016C75.3098 15.8694 74.9748 14.8873 74.1683 14.0678ZM68.4733 10.6587C68.4733 10.5711 68.4919 10.5461 68.585 10.5461C69.5341 10.5523 70.4895 10.5398 71.4387 10.5523C72.0466 10.5586 72.5491 11.0715 72.5926 11.7033C72.636 12.2913 72.1893 12.8856 71.6124 12.9856C71.389 13.0232 71.1595 13.0107 70.93 13.0107C70.6384 13.0107 70.353 13.0107 70.0614 13.0107C69.5776 13.0107 69.0875 13.0107 68.6036 13.0107C68.5043 13.0107 68.4733 12.9856 68.4733 12.8793C68.4733 12.1349 68.4733 11.3968 68.4733 10.6587ZM72.8779 16.9578C72.7042 17.427 72.3506 17.721 71.8419 17.746C71.3084 17.771 70.7749 17.7522 70.2476 17.7522C70.2476 17.7585 70.2476 17.7585 70.2476 17.7647C69.7016 17.7647 69.1495 17.7647 68.6036 17.7647C68.4981 17.7647 68.4733 17.7335 68.4733 17.6334C68.4795 16.9015 68.4795 16.1634 68.4733 15.4315C68.4733 15.3314 68.4981 15.3126 68.5974 15.3126C69.6334 15.3189 70.6632 15.3189 71.6992 15.3126C72.5926 15.3001 73.1819 16.1446 72.8779 16.9578Z" fill="#2D2D2D"/>
<path d="M82.854 8.28165C79.6777 8.30042 77.0659 10.8964 77.0287 14.0929C76.9915 17.2706 79.5785 20.0292 82.8478 20.0167C86.0241 20.0292 88.6421 17.3957 88.6731 14.2055C88.7041 10.9402 85.9621 8.26289 82.854 8.28165ZM82.854 17.7523C80.875 17.7898 79.2621 16.1071 79.2683 14.1805C79.2745 12.1475 80.8378 10.5461 82.8354 10.5461C84.8206 10.5461 86.4274 12.1537 86.4274 14.1554C86.4274 16.1509 84.8392 17.7523 82.854 17.7523Z" fill="#2D2D2D"/>
<path d="M0.00542331 14.2653C0.054117 12.3176 0.521004 10.4758 1.42327 8.74574C1.999 7.64583 2.72368 6.65477 3.59444 5.76683C3.82645 5.52909 4.06419 5.29994 4.31338 5.08512C4.87479 4.59818 5.47058 4.15994 6.10646 3.77898C6.46164 3.56702 6.82541 3.36938 7.20063 3.19179C7.67325 2.96837 8.15732 2.7736 8.65572 2.6132C8.97366 2.51008 9.29733 2.41842 9.62386 2.34109C9.90743 2.27521 10.191 2.21219 10.4774 2.1635C10.7123 2.1234 10.9529 2.10335 11.1907 2.07184C11.4341 2.04033 11.6776 2.02601 11.9239 2.01169C12.1273 2.00023 12.3335 2.00023 12.5369 2.00309C12.683 2.00309 12.8291 1.9945 12.9723 2.00596C13.1756 2.02028 13.3761 2.02601 13.5795 2.04319C13.7428 2.05752 13.906 2.07184 14.0693 2.08902C14.2612 2.11194 14.4531 2.14345 14.6422 2.16922C14.9229 2.20933 15.1979 2.27234 15.4728 2.33536C15.7736 2.4041 16.0743 2.47857 16.3665 2.58455C16.4696 2.62179 16.5727 2.65043 16.6787 2.68194C16.6844 2.70486 16.6701 2.71918 16.6587 2.7335C16.5813 2.81084 16.504 2.89104 16.4267 2.96551C16.4095 2.9827 16.3894 2.99415 16.3636 2.99415C16.2605 2.97983 16.166 2.93973 16.0686 2.90822C15.7134 2.79651 15.3497 2.71631 14.9859 2.63898C14.7367 2.58742 14.4846 2.54732 14.2326 2.51581C13.9719 2.48144 13.7113 2.45279 13.4506 2.43274C13.3532 2.42415 13.2558 2.42702 13.1585 2.40983C13.1098 2.39551 13.0582 2.39837 13.0095 2.40124C12.9035 2.40124 12.7975 2.40696 12.6916 2.39551C12.6114 2.37546 12.5312 2.37832 12.451 2.39551C12.3507 2.40696 12.2505 2.40124 12.1502 2.40124C12.0929 2.39837 12.0356 2.39264 11.9812 2.4041C11.7864 2.42415 11.5917 2.43274 11.3969 2.45279C10.9844 2.49576 10.572 2.54732 10.1652 2.63038C9.61527 2.74496 9.07391 2.89104 8.54401 3.07722C7.93963 3.28918 7.35531 3.54983 6.79103 3.85345C6.15515 4.19431 5.55937 4.59245 4.9951 5.03929C4.74876 5.23406 4.51102 5.4403 4.28188 5.65799C3.74625 6.15924 3.25931 6.70633 2.8182 7.29066C2.4487 7.78046 2.12503 8.30177 1.83287 8.84313C1.47196 9.51052 1.18553 10.2094 0.956383 10.9312C0.741558 11.6101 0.595476 12.3061 0.503818 13.0136C0.460853 13.3401 0.440802 13.6695 0.415023 13.9961C0.400702 14.0419 0.409295 14.0906 0.40643 14.1393C0.40643 14.1966 0.403566 14.251 0.409295 14.3083C0.409295 14.4945 0.412159 14.6806 0.409295 14.8697C0.400702 14.9241 0.40643 14.9785 0.40643 15.033C0.423616 15.3939 0.449395 15.7519 0.495225 16.1071C0.555376 16.5826 0.64417 17.0552 0.761608 17.5192C0.956383 18.2983 1.22563 19.0516 1.56935 19.7792C1.89302 20.4609 2.28257 21.1025 2.72368 21.7126C2.738 21.7326 2.75232 21.7498 2.76664 21.7699C2.79529 21.8128 2.81534 21.8042 2.83539 21.7613C2.91559 21.6009 2.99293 21.4405 3.07313 21.2801C3.45408 20.5382 3.89233 19.8307 4.38499 19.1547C4.68288 18.7451 5.00369 18.3527 5.34168 17.9775C5.63384 17.651 5.94605 17.3416 6.26972 17.0437C6.75953 16.594 7.2837 16.1873 7.83938 15.8264C8.44089 15.434 9.07964 15.116 9.75562 14.864C10.3457 14.6463 10.95 14.4973 11.5716 14.4143C11.6948 14.3971 11.8179 14.3828 11.9411 14.3799C11.9841 14.377 12.027 14.3828 12.0585 14.3427C12.0729 14.314 12.0671 14.2854 12.0671 14.2567C12.0671 13.4547 12.0671 12.6556 12.0671 11.8535C12.0671 11.8249 12.07 11.7963 12.0585 11.7676C12.0442 11.7304 12.0099 11.7189 11.9783 11.7017C11.6232 11.5184 11.4169 11.2205 11.3224 10.8396C11.3081 10.7851 11.3052 10.7307 11.3081 10.6763C11.3081 10.6219 11.3081 10.5675 11.3081 10.513C11.3052 10.2467 11.4083 10.0146 11.5659 9.80841C11.8008 9.50192 12.113 9.34439 12.4968 9.32147C12.5483 9.32147 12.5999 9.32147 12.6486 9.32147C13.0439 9.35298 13.3675 9.52197 13.5996 9.84564C13.9404 10.3211 13.9232 10.914 13.5623 11.3752C13.4535 11.5127 13.3217 11.6273 13.1642 11.7075C13.1355 11.7218 13.1012 11.7332 13.0897 11.7705C13.0783 11.7991 13.0811 11.8278 13.0811 11.8564C13.0811 12.6584 13.0811 13.4604 13.0811 14.2596C13.0811 14.2882 13.0783 14.3169 13.0926 14.3427C13.1126 14.3742 13.1441 14.377 13.1756 14.377C13.7113 14.4114 14.2354 14.5116 14.751 14.6577C15.1979 14.7838 15.6304 14.9442 16.0514 15.1418C16.4381 15.3223 16.8191 15.5199 17.18 15.749C17.6612 16.0555 18.1252 16.3878 18.5577 16.763C18.8957 17.0552 19.2222 17.3588 19.5287 17.6825C19.8639 18.0348 20.1818 18.4043 20.4826 18.7881C20.9437 19.381 21.359 20.0026 21.7314 20.6556C21.9319 21.008 22.1152 21.3689 22.2957 21.7326C22.3071 21.7584 22.3157 21.7871 22.3444 21.8071C22.3787 21.767 22.4074 21.724 22.4389 21.6839C22.88 21.0738 23.2667 20.4294 23.5875 19.7477C23.8883 19.1089 24.1317 18.4501 24.315 17.7684C24.4783 17.1612 24.5986 16.5453 24.6674 15.9209C24.6903 15.7233 24.7132 15.5228 24.716 15.3223C24.716 15.2592 24.7304 15.1991 24.7361 15.1361C24.7476 15.0874 24.7447 15.0387 24.739 14.99C24.7361 14.7551 24.7361 14.5174 24.739 14.2825C24.7447 14.2252 24.7476 14.1679 24.7361 14.1106C24.7218 13.9502 24.7132 13.787 24.7046 13.6266C24.6931 13.4175 24.6645 13.2084 24.6416 13.0021C24.6072 12.6899 24.5499 12.3806 24.4869 12.0712C24.4124 11.6931 24.3093 11.3208 24.1947 10.9513C23.9885 10.2782 23.725 9.62795 23.4013 9.00639C22.9889 8.21011 22.5019 7.45965 21.9205 6.77508C21.7314 6.55166 21.5338 6.33397 21.3304 6.12201C20.663 5.41738 19.9097 4.81587 19.0962 4.28883C19.0762 4.27451 19.0561 4.26305 19.0418 4.243C19.0332 4.22295 19.0361 4.2029 19.0504 4.18858C19.1335 4.10265 19.2051 4.00813 19.3053 3.94511C19.4629 4.05109 19.6204 4.15421 19.7751 4.26305C20.0128 4.42919 20.2448 4.60391 20.4711 4.78723C20.6115 4.9018 20.7547 5.01924 20.8893 5.13954C21.1528 5.37155 21.4106 5.61216 21.6512 5.86995C21.7887 6.01603 21.9262 6.16211 22.0551 6.31392C22.1697 6.44854 22.2842 6.58603 22.3959 6.72352C22.5678 6.93261 22.7282 7.14744 22.8829 7.37086C23.1235 7.71458 23.3412 8.06976 23.5474 8.43639C23.7536 8.80016 23.9398 9.17253 24.1059 9.55635C24.2377 9.85997 24.3551 10.1693 24.4611 10.4815C24.5957 10.8768 24.7132 11.2778 24.8077 11.6845C24.8564 11.8965 24.8994 12.1085 24.9366 12.3233C24.9796 12.561 25.0168 12.7959 25.0454 13.0336C25.0655 13.2026 25.0798 13.3745 25.0941 13.5435C25.1142 13.7812 25.1228 14.019 25.1371 14.2567C25.1428 14.4687 25.1428 14.6778 25.1371 14.8897C25.1285 15.0902 25.1228 15.2907 25.1056 15.4912C25.0798 15.7777 25.0483 16.0641 25.0082 16.3477C24.9452 16.7888 24.8564 17.2242 24.7504 17.6538C24.6101 18.2095 24.4353 18.7566 24.2177 19.2894C24.0888 19.6073 23.9484 19.9195 23.7909 20.2231C23.4787 20.8304 23.1292 21.4176 22.7196 21.9675C22.5048 22.2568 22.29 22.5432 22.0522 22.8125C21.382 23.5715 20.6372 24.2533 19.8066 24.8376C18.6093 25.6826 17.3031 26.2927 15.891 26.6822C15.407 26.8168 14.9143 26.9171 14.413 26.9887C14.0178 27.0431 13.6225 27.0804 13.2272 27.1061C12.8147 27.1319 12.4023 27.1319 11.9898 27.1119C11.5401 27.0918 11.0904 27.046 10.6407 26.9772C9.80718 26.8483 8.99657 26.6392 8.20602 26.3471C6.87124 25.8516 5.65389 25.1498 4.55685 24.2418C4.30193 24.0327 4.06132 23.8121 3.82358 23.583C3.60016 23.3653 3.37961 23.1448 3.17338 22.9127C2.83825 22.5375 2.53463 22.1394 2.24533 21.7298C1.93312 21.2829 1.65242 20.8132 1.40035 20.3291C1.06523 19.6818 0.790251 19.0115 0.569697 18.3183C0.423616 17.8601 0.306179 17.3932 0.220248 16.9177C0.160097 16.5997 0.111404 16.2789 0.0770317 15.9553C0.0512527 15.7175 0.0340667 15.4798 0.0168806 15.2421C0.00828764 15.1074 0.0140163 14.9757 0.00542331 14.8439C-0.000305364 14.6577 -0.0031697 14.4601 0.00542331 14.2653Z" fill="#2D2D2D"/>
<path d="M19.2994 3.95085C19.2278 4.02532 19.1533 4.09979 19.0817 4.17426C19.0645 4.19145 19.0388 4.20577 19.0416 4.23728C19.0015 4.2516 18.9729 4.22009 18.9442 4.20291C18.5891 3.98522 18.2224 3.78185 17.8472 3.6014C17.3946 3.38371 16.9335 3.1918 16.458 3.03426C16.4265 3.0228 16.3835 3.02567 16.3721 2.97984C16.4838 2.89104 16.5783 2.78793 16.6757 2.68195C17.3946 2.92541 18.0849 3.24049 18.7437 3.61285C18.9328 3.7217 19.1218 3.82768 19.2994 3.95085Z" fill="#3F3F3F"/>
<path d="M25.1309 14.8983C25.1309 14.6864 25.1309 14.4773 25.1309 14.2653C25.148 14.4744 25.148 14.6864 25.1309 14.8983Z" fill="#9C9C9C"/>
<path d="M16.3753 2.98271C16.6617 3.08582 16.951 3.18607 17.2317 3.30351C17.8418 3.55844 18.429 3.85919 18.9904 4.21151C19.0076 4.22296 19.0248 4.22869 19.0391 4.24015C19.2281 4.36618 19.4172 4.48935 19.6034 4.62111C19.9156 4.84452 20.2192 5.0794 20.5114 5.33146C20.7205 5.51191 20.9238 5.69523 21.1186 5.89001C21.5167 6.29101 21.892 6.70921 22.2386 7.15891C22.6138 7.64871 22.9461 8.16429 23.2468 8.70278C23.5733 9.28997 23.8455 9.90294 24.066 10.5388C24.1491 10.7823 24.2235 11.0258 24.298 11.2721C24.3897 11.5728 24.4556 11.8793 24.5186 12.1858C24.5673 12.4121 24.6074 12.6384 24.6331 12.8675C24.6532 13.0652 24.6876 13.2628 24.699 13.4604C24.7105 13.6753 24.7334 13.893 24.7391 14.1078C24.7592 14.1622 24.7391 14.2224 24.7506 14.2768C24.7506 14.5203 24.7506 14.7609 24.7506 15.0043C24.7391 15.053 24.7563 15.1017 24.7391 15.1504C24.7191 15.3767 24.7076 15.603 24.6847 15.8321C24.6675 16.0068 24.6417 16.1787 24.6217 16.3534C24.6074 16.4966 24.5787 16.637 24.5501 16.7773C24.5043 17.0151 24.4498 17.25 24.3954 17.4848C24.3209 17.7942 24.2321 18.1007 24.1348 18.4043C24.0259 18.7366 23.8999 19.0602 23.7624 19.381C23.6306 19.6904 23.4817 19.9883 23.327 20.2862C23.1208 20.6786 22.8888 21.0595 22.6338 21.4262C22.5422 21.5579 22.4477 21.6897 22.3531 21.8214C22.3445 21.8329 22.3331 21.8415 22.3188 21.8529C22.2271 21.6696 22.1383 21.4863 22.0467 21.3087C21.7917 20.8075 21.5082 20.3234 21.2017 19.8536C20.9095 19.4039 20.5944 18.9714 20.2564 18.5561C20.0473 18.3012 19.8325 18.0491 19.6034 17.8114C19.5232 17.7283 19.4487 17.6424 19.3685 17.5622C18.9446 17.1354 18.5006 16.7315 18.0194 16.3677C17.5668 16.0269 17.1028 15.7118 16.6044 15.4454C16.0716 15.1619 15.5217 14.9184 14.946 14.7408C14.565 14.6234 14.1783 14.5317 13.7859 14.4716C13.5768 14.44 13.3706 14.4114 13.1586 14.3999C13.1271 14.3971 13.0985 14.3914 13.067 14.3856C13.0555 14.3684 13.0584 14.3484 13.0584 14.3312C13.0584 13.4862 13.0584 12.6412 13.0584 11.7934C13.0584 11.7734 13.0555 11.7562 13.0641 11.7361C13.1873 11.6702 13.3076 11.6015 13.4107 11.5041C13.6971 11.2291 13.8375 10.894 13.8088 10.4959C13.7687 9.94877 13.382 9.49334 12.8378 9.37304C12.7748 9.35872 12.7118 9.35299 12.6516 9.34153C12.5943 9.3358 12.5371 9.3358 12.4798 9.34153C11.8496 9.37877 11.3484 9.88575 11.3168 10.5045C11.3111 10.5675 11.3111 10.6276 11.3168 10.6906C11.3426 10.9914 11.4658 11.2492 11.672 11.464C11.7837 11.5814 11.9212 11.6616 12.0644 11.7361C12.0759 11.759 12.0702 11.7819 12.0702 11.8077C12.0702 12.6441 12.0702 13.4776 12.0702 14.314C12.0702 14.3369 12.0759 14.3627 12.0644 14.3828C11.8869 14.4114 11.7064 14.4171 11.5288 14.44C11.1937 14.4859 10.8586 14.5518 10.532 14.6377C10.0078 14.7752 9.50373 14.9585 9.01392 15.1934C8.64442 15.371 8.28638 15.5629 7.9398 15.7806C7.63904 15.9725 7.34974 16.1758 7.06618 16.3878C6.92296 16.4966 6.78261 16.6112 6.64798 16.7315C6.52482 16.8432 6.39879 16.9521 6.27562 17.0638C6.08657 17.2356 5.8918 17.4046 5.71994 17.5937C5.58245 17.7455 5.43637 17.8916 5.30461 18.0462C5.19863 18.1694 5.08978 18.2869 4.98667 18.4129C4.89501 18.5246 4.80049 18.6392 4.71169 18.7537C4.60285 18.897 4.49114 19.0373 4.38516 19.1834C4.19898 19.4383 4.02139 19.699 3.84953 19.9625C3.69772 20.2002 3.55164 20.4408 3.41415 20.6843C3.29098 20.9077 3.16209 21.1283 3.05324 21.3574C2.97877 21.5121 2.90143 21.6639 2.82409 21.8157C2.80691 21.8501 2.79545 21.8529 2.77254 21.8214C2.49756 21.4519 2.23404 21.0653 2.00203 20.6614C1.85881 20.4151 1.72133 20.163 1.59816 19.9052C1.39479 19.4784 1.20861 19.0459 1.05394 18.5991C0.922176 18.221 0.810467 17.8372 0.715943 17.4505C0.644335 17.1583 0.584184 16.8661 0.538355 16.5682C0.501118 16.3133 0.461018 16.0584 0.438103 15.8035C0.420917 15.6116 0.398002 15.4197 0.395138 15.2249C0.395138 15.1676 0.372223 15.1132 0.386545 15.0559C0.389409 14.9986 0.392274 14.9413 0.383681 14.884C0.383681 14.6921 0.383681 14.5031 0.383681 14.3112C0.392274 14.2539 0.386545 14.1937 0.386545 14.1364C0.389409 14.0906 0.380816 14.0419 0.392274 13.9961C0.406595 13.7698 0.415188 13.5435 0.440967 13.3201C0.478204 12.9764 0.529762 12.6355 0.592777 12.2975C0.704486 11.6932 0.864889 11.1031 1.06826 10.5245C1.31745 9.81701 1.6268 9.13816 2.00489 8.49082C2.26268 8.04972 2.53766 7.62293 2.84701 7.21619C3.03033 6.97273 3.2251 6.74071 3.42847 6.51443C3.66048 6.25378 3.89536 5.99885 4.14742 5.75825C4.39089 5.52624 4.64581 5.30568 4.90647 5.09372C5.23587 4.82734 5.57386 4.58101 5.92617 4.34899C6.15245 4.20005 6.38733 4.06256 6.6222 3.9308C6.87427 3.78472 7.13778 3.65583 7.4013 3.52979C7.84814 3.31783 8.3093 3.13738 8.77905 2.98271C9.10558 2.87673 9.43498 2.7822 9.76724 2.702C10.0279 2.63899 10.2914 2.58456 10.5578 2.5416C10.7497 2.51009 10.9445 2.48718 11.1393 2.46426C11.3512 2.43848 11.5632 2.41843 11.778 2.40698C11.841 2.40411 11.904 2.39838 11.9671 2.39265C12.0243 2.37547 12.0845 2.39838 12.1418 2.3812C12.2449 2.3812 12.3509 2.37833 12.454 2.37833C12.5313 2.36974 12.6058 2.36974 12.6831 2.37833C12.792 2.3812 12.9008 2.3812 13.0068 2.38406C13.0555 2.39552 13.1071 2.37833 13.1558 2.39265C13.405 2.4127 13.6541 2.42416 13.9005 2.4528C14.0981 2.47572 14.2986 2.50436 14.4963 2.53587C14.7455 2.57311 14.9889 2.62753 15.2324 2.67909C15.4873 2.73065 15.7394 2.79939 15.9914 2.86813C16.1175 2.90251 16.2464 2.94261 16.3753 2.98271Z" fill="#FEFEFE"/>
<path d="M12.2767 17.0981C11.5979 17.1182 10.9362 17.2356 10.2889 17.439C8.48146 18.0061 7.00346 19.0602 5.8033 20.5182C5.19033 21.26 4.7034 22.0764 4.37973 22.9872C4.33103 23.1247 4.29093 23.2622 4.25083 23.4025C4.23651 23.457 4.22219 23.457 4.18495 23.4169C4.01596 23.245 3.84123 23.0789 3.6751 22.907C3.53188 22.7581 3.39153 22.6034 3.26264 22.4401C3.21394 22.3771 3.16525 22.3141 3.10796 22.2568C3.07073 22.2196 3.07359 22.1881 3.09364 22.1451C3.25404 21.8042 3.42304 21.4691 3.60349 21.1397C4.31385 19.8393 5.18174 18.6592 6.24441 17.6252C6.61964 17.2614 7.01205 16.9177 7.43311 16.6083C7.78542 16.3477 8.14919 16.1013 8.53015 15.8894C9.11447 15.5629 9.72171 15.285 10.3662 15.0902C10.8474 14.9442 11.3372 14.841 11.8413 14.7952C12.1392 14.7694 12.44 14.7465 12.7407 14.758C13.3394 14.7809 13.9266 14.8611 14.5052 15.0215C14.9062 15.1332 15.3014 15.2621 15.6795 15.4311C16.1292 15.6316 16.5675 15.8522 16.9828 16.1214C17.2721 16.3076 17.5585 16.4995 17.8306 16.7057C18.0627 16.8833 18.2832 17.0724 18.5009 17.2643C18.7129 17.4533 18.922 17.6424 19.1167 17.8457C19.4805 18.221 19.8271 18.6134 20.1479 19.0258C20.4229 19.3781 20.6835 19.7391 20.927 20.1143C21.1876 20.5153 21.4254 20.9278 21.6488 21.3488C21.7892 21.6095 21.9152 21.8787 22.0441 22.1451C22.0641 22.1881 22.0584 22.2196 22.0298 22.2511C21.6918 22.6578 21.3366 23.0502 20.9499 23.414C20.9299 23.434 20.9069 23.4741 20.8869 23.4054C20.5604 22.2425 19.956 21.2342 19.1769 20.3262C18.1171 19.0946 16.8396 18.1694 15.3129 17.5937C14.9004 17.439 14.4765 17.3244 14.0469 17.2385C13.8292 17.1955 13.6115 17.164 13.3881 17.1382C13.2133 17.1182 13.0357 17.0981 12.861 17.0953C12.7837 17.0838 12.7035 17.0981 12.6261 17.0867C12.5889 17.0867 12.5517 17.0867 12.5116 17.0867C12.4342 17.101 12.354 17.0867 12.2767 17.0981Z" fill="#F2F2F2"/>
<path d="M9.85324 24.8748C9.05122 24.8691 8.42107 24.2275 8.4268 23.4226C8.43253 22.6378 9.07986 22.0105 9.87615 22.0162C10.6581 22.0219 11.2911 22.6693 11.2854 23.457C11.2797 24.2389 10.6352 24.8777 9.85324 24.8748Z" fill="#F6F6F6"/>
<path d="M15.2809 24.8748C14.4932 24.8748 13.8516 24.236 13.8516 23.4455C13.8516 22.6549 14.4874 22.0162 15.278 22.0133C16.0743 22.0133 16.7102 22.6492 16.7102 23.4455C16.7073 24.2332 16.0686 24.8719 15.2809 24.8748Z" fill="#F6F6F6"/>
<path d="M13.4387 10.599C13.4359 11.0716 13.0606 11.464 12.5651 11.4669C12.0868 11.4697 11.6943 11.0716 11.6943 10.599C11.6943 10.1206 12.0839 9.73109 12.5651 9.72823C13.0463 9.72536 13.4387 10.1178 13.4387 10.599Z" fill="#CB3631"/>
<path d="M15.3352 21.1254C15.3237 21.1254 15.3122 21.1254 15.3008 21.1254C15.212 21.1196 15.149 21.1225 15.106 21.2342C15.0459 21.3917 14.8597 21.4548 14.705 21.4003C14.5446 21.3459 14.4501 21.1798 14.4787 21.0022C14.5102 20.7988 14.6363 20.6871 14.8482 20.6928C15.1089 20.6986 15.3266 20.8074 15.507 20.9907C15.5213 21.0051 15.5328 21.0194 15.5414 21.0366C15.5786 21.0938 15.5614 21.1282 15.4956 21.1282C15.4411 21.1282 15.3896 21.1254 15.3352 21.1254Z" fill="#F3F3F3"/>
<path d="M9.97374 21.1246C9.9852 21.1246 9.99665 21.1246 10.0081 21.1246C10.0969 21.1188 10.1599 21.1217 10.2028 21.2337C10.2629 21.3916 10.4491 21.4548 10.6037 21.4002C10.764 21.3456 10.8585 21.1791 10.8299 21.0011C10.7984 20.7972 10.6724 20.6853 10.4605 20.691C10.1999 20.6967 9.98233 20.8059 9.80195 20.9896C9.78763 21.004 9.77618 21.0183 9.76759 21.0356C9.73037 21.093 9.74754 21.1274 9.8134 21.1274C9.8678 21.1274 9.91934 21.1246 9.97374 21.1246Z" fill="#F3F3F3"/>
<path d="M13.0696 11.7447C13.0696 12.5954 13.0696 13.4432 13.0696 14.2939C13.0696 14.3283 13.0696 14.3598 13.0696 14.3942C13.0438 14.3799 13.0553 14.357 13.0553 14.3369C13.0553 13.4919 13.0553 12.6498 13.0553 11.8048C13.0581 11.7848 13.0467 11.7619 13.0696 11.7447Z" fill="#C9C9C9"/>
<path d="M12.0664 14.3913C12.0664 13.5091 12.0664 12.6269 12.0664 11.7447C12.0893 11.7619 12.0779 11.7848 12.0779 11.8048C12.0779 12.647 12.0779 13.4919 12.0779 14.334C12.0779 14.3541 12.0893 14.377 12.0664 14.3913Z" fill="#F2F2F2"/>
<path d="M12.2764 17.0981C12.3537 17.0867 12.431 17.0867 12.5112 17.0895C12.4339 17.1067 12.3566 17.101 12.2764 17.0981Z" fill="#656565"/>
<path d="M12.626 17.0896C12.7033 17.0867 12.7835 17.0838 12.8609 17.0982C12.7807 17.101 12.7033 17.1067 12.626 17.0896Z" fill="#656565"/>
<path d="M11.3196 10.6992C11.2996 10.6362 11.3025 10.5761 11.3196 10.5131C11.3196 10.5761 11.3196 10.6391 11.3196 10.6992Z" fill="#F2F2F2"/>
<path d="M24.7535 14.2797C24.7306 14.2252 24.7478 14.1651 24.7421 14.1107C24.7621 14.1651 24.7507 14.2224 24.7535 14.2797Z" fill="#F2F2F2"/>
<path d="M12.4824 9.35011C12.5397 9.33292 12.597 9.33292 12.6543 9.35011C12.597 9.35011 12.5397 9.35011 12.4824 9.35011Z" fill="#F2F2F2"/>
<path d="M24.7414 15.1533C24.7414 15.1046 24.7386 15.0559 24.7529 15.0072C24.7558 15.0559 24.7615 15.1075 24.7414 15.1533Z" fill="#777777"/>
<path d="M10.1457 22.4086C10.7329 22.4114 11.2055 22.8841 11.2055 23.4713C11.2055 24.0556 10.7243 24.5311 10.1429 24.5282C9.55282 24.5253 9.08594 24.0556 9.08594 23.4655C9.08594 22.8783 9.55855 22.4057 10.1457 22.4086Z" fill="#2D2D2D"/>
<path d="M14.9895 22.4086C15.5738 22.4057 16.0464 22.8755 16.0522 23.4569C16.055 24.0498 15.5881 24.5225 14.9952 24.5253C14.4138 24.5311 13.9326 24.0527 13.9297 23.4684C13.9297 22.8841 14.4023 22.4114 14.9895 22.4086Z" fill="#2D2D2D"/>
<path d="M10.7097 22.8727C10.7097 22.993 10.6151 23.0903 10.492 23.0903C10.3659 23.0932 10.2686 22.9958 10.2686 22.8727C10.2686 22.7524 10.3631 22.655 10.4862 22.655C10.6123 22.6521 10.7097 22.7466 10.7097 22.8727Z" fill="#FEFEFE"/>
<path d="M10.489 24.2332C10.4116 24.2332 10.3486 24.1702 10.3486 24.0929C10.3486 24.0127 10.4174 23.9468 10.4947 23.9497C10.5721 23.9525 10.6351 24.0184 10.6322 24.0958C10.6322 24.1702 10.5663 24.2332 10.489 24.2332Z" fill="#FDFDFD"/>
<path d="M14.865 22.8698C14.8679 22.993 14.7705 23.0903 14.6444 23.0903C14.5213 23.0903 14.4268 22.9958 14.4268 22.8755C14.4268 22.7495 14.5213 22.6521 14.6473 22.655C14.7676 22.6521 14.8621 22.7495 14.865 22.8698Z" fill="#FEFEFE"/>
<path d="M14.7884 24.0929C14.7884 24.1702 14.7225 24.2332 14.6452 24.2332C14.5678 24.2332 14.502 24.1702 14.502 24.0929C14.502 24.0156 14.5707 23.9468 14.648 23.9497C14.7254 23.9525 14.7884 24.0156 14.7884 24.0929Z" fill="#FDFDFD"/>
</svg>
